Simulation
nRows=40
nColumns=15
endheader
time  TH_x TH_y TH_z SC_y  SC_z  SC_x  AC_y  AC_z  AC_x  GH_y  GH_z  GH_yy  EL_x  PS_y
8.6175  0.000000  0.000000  0.000000  -34.092734059965736  -4.6108055600263285  17.755685546971634  48.797765027606616  -23.723914497058477  -7.194674139772953  -19.731124682684214  22.54553078417931  25.152467224699055  20.602440557175445  120.000000
8.67495  0.000000  0.000000  0.000000  -34.09060512156064  -4.579611082867774  16.893151732712997  49.10559401920487  -23.363344429962645  -6.3403780965666146  -19.581618708462745  23.145741535540267  24.844780933133066  20.528342303878663  120.000000
8.7324  0.000000  0.000000  0.000000  -34.111206595329605  -4.637542421869229  15.93544899104977  49.60593836890657  -23.06875696109925  -5.218325342140881  -18.666322819370784  23.875657411378477  24.031666152838387  20.632590090128094  120.000000
8.78985  0.000000  0.000000  0.000000  -34.16993089380745  -4.768095475285451  14.89786513027728  50.32652834489903  -22.802744020168774  -3.820704381747994  -16.90531134926667  24.715500997958014  22.6027772733819  20.89219688067688  120.000000
8.8473  0.000000  0.000000  0.000000  -34.29185467259085  -4.921283226530592  13.816513867686641  51.28116723727619  -22.505567926149965  -2.163786727228657  -14.28332917923927  25.627110088297016  20.46680407506492  21.239488721145303  120.000000
8.90475  0.000000  0.000000  0.000000  -34.52555197403845  -5.013397468860651  12.74715352518015  52.47489076424435  -22.10953331323259  -0.27808883884395275  -10.801433999132602  26.556467593387513  17.528811514298884  21.60058071964349  120.000000
8.9622  0.000000  0.000000  0.000000  -34.944359319939366  -4.93306186401897  11.76395063975272  53.8983392529778  -21.5544814247143  1.7928404998975056  -6.446102642667756  27.445393902968565  13.674773297365  21.921437477323234  120.000000
9.01965  0.000000  0.000000  0.000000  -35.61209422638655  -4.542690822163235  10.961616162559592  55.5074839475712  -20.80047300281906  3.9816601461716523  -1.2425733672802466  28.2464470796205  8.815730895013703  22.166685305582327  120.000000
9.0771  0.000000  0.000000  0.000000  -36.52501191512193  -3.7077702287921124  10.46753797571715  57.2377203166658  -19.84074155603576  6.209574725886168  4.708314339212959  28.931796950241292  2.9150489259035623  22.322546686144754  120.000000
9.13455  0.000000  0.000000  0.000000  -37.57889322735646  -2.3407980873789063  10.450160412849137  59.04564782689482  -18.71335226075592  8.426964525157134  11.281933512074035  29.512667912084435  -4.04276278301926  22.388582338095002  120.000000
9.192  0.000000  0.000000  0.000000  -38.64739426933728  -0.4242932877013914  11.083569118605046  60.91527340407007  -17.483646916307848  10.615823736073605  18.358093770225995  30.076352096085557  -12.042820506282533  22.36764170256805  120.000000
9.24945  0.000000  0.000000  0.000000  -39.68029702183183  1.992801397356324  12.49489524880266  62.80808245977566  -16.201608996543733  12.74492354631733  25.751408597378724  30.77986223464166  -20.93996633439091  22.256450925631743  120.000000
9.3069  0.000000  0.000000  0.000000  -40.73210697569415  4.8217493150184225  14.748573740771166  64.64267797425865  -14.901688446334456  14.761902985098304  33.15932046395866  31.806087225042333  -30.391761471465067  22.048312987882866  120.000000
9.36435  0.000000  0.000000  0.000000  -41.924173187157564  7.944059278944172  17.859363580058975  66.30329627456763  -13.627437524052873  16.622245885076644  40.179233423401676  33.29216995185598  -39.88683632836438  21.7393228567955  120.000000
9.421800000000001  0.000000  0.000000  0.000000  -43.3721217971879  11.200572957608697  21.790856961349654  67.6582468226314  -12.433906853204014  18.287431057198468  46.411779160522066  35.25129988334948  -48.87866921455194  21.33079694445025  120.000000
9.47925  0.000000  0.000000  0.000000  -45.121710225360076  14.388314727335057  26.434575239094613  68.58482043983318  -11.386994254613885  19.71963268941871  51.59200827887386  37.559280672211415  -56.950846806123614  20.83751994351452  120.000000
9.5367  0.000000  0.000000  0.000000  -47.12363365892628  17.3014161732227  31.608575069215856  69.00505718984799  -10.54757604776961  20.8890520011313  55.63318476392885  40.01230342526562  -63.87488254956427  20.291586802886393  120.000000
9.59415  0.000000  0.000000  0.000000  -49.27292052145083  19.775327671868514  37.073380847352844  68.9276393607935  -9.947493054886422  21.78753588912498  58.58829260363014  42.41329972168451  -69.57281360488261  19.742378365782365  120.000000
9.6516  0.000000  0.000000  0.000000  -51.441938751270705  21.693517270680474  42.540496215882456  68.43890919917202  -9.579496328805126  22.43264459185945  60.61545491361207  44.595112700695324  -74.06938001271095  19.23580299568008  120.000000
9.70905  0.000000  0.000000  0.000000  -53.50194474635924  22.99866490290262  47.69672764418592  67.67453122103872  -9.406648228766082  22.846558643190114  61.937878536586716  46.43532667954641  -77.45619266572959  18.802989874258326  120.000000
9.7665  0.000000  0.000000  0.000000  -55.32718431456317  23.722363009225383  52.243331225908605  66.78668703034748  -9.383138508156637  23.047200287023255  62.774800923551055  47.8818726434447  -79.85440195961564  18.466395095230272  120.000000
9.82395  0.000000  0.000000  0.000000  -56.78998328979454  23.9890004606097  55.935886662522094  65.90952118895763  -9.471663406269338  23.05134979433461  63.30495759354934  48.93686897857106  -81.40157823309882  18.237503047522516  120.000000
9.8814  0.000000  0.000000  0.000000  -57.7929907965568  23.9695423937771  58.61974366995531  65.15163682767093  -9.648552100089805  22.868504216622767  63.65789846887696  49.63394404759145  -82.24870500895467  18.117658404721745  120.000000
9.93885  0.000000  0.000000  0.000000  -58.28911122818403  23.828108056557163  60.24296475637843  64.58729055213544  -9.90769708642876  22.50268311468036  63.91479469149155  50.00994318449721  -82.54431402390091  18.09634842349633  120.000000
9.9963  0.000000  0.000000  0.000000  -58.29173073529956  23.68476275581138  60.85071143068491  64.25336296536004  -10.26928915212515  21.963521261629147  64.12153196377403  50.08191845847301  -82.41492980311202  18.147875583735285  120.000000
10.05375  0.000000  0.000000  0.000000  -57.82484279830759  23.583502151600843  60.48462181059937  64.15511944110007  -10.74274948032362  21.274062381112724  64.28603413692149  49.85381570556723  -81.9302158491143  18.24029519819208  120.000000
10.1112  0.000000  0.000000  0.000000  -56.880150004944966  23.471653327549273  59.09275741458128  64.272745915575  -11.287672953215607  20.476002486922685  64.36729158663812  49.33732215655337  -81.07161264490776  18.347405924495302  120.000000
10.16865  0.000000  0.000000  0.000000  -55.47621189539303  23.227975939181665  56.63189044482724  64.56390460725302  -11.839624755334576  19.62787628711511  64.2843220170194  48.530056983843046  -79.73248482555165  18.446800005677826  120.000000
10.2261  0.000000  0.000000  0.000000  -53.71024466879803  22.708898012381535  53.168317905727804  64.96898347784983  -12.34556167890634  18.798249796778048  63.91705840757179  47.40768906400982  -77.73712204350564  18.517760441357566  120.000000
10.28355  0.000000  0.000000  0.000000  -51.742392832373596  21.79520009531119  48.87434227898536  65.42642441207732  -12.775628027263412  18.055875632920127  63.090291823624405  45.9475716318723  -74.86495981449906  18.546302475656613  120.000000
10.341000000000001  0.000000  0.000000  0.000000  -49.74610178809477  20.426021722639483  43.985623509889265  65.87085635096271  -13.11922880754274  17.454706156198025  61.58614479752144  44.151437221564585  -70.89460880078  18.531698759526286  120.000000
10.39845  0.000000  0.000000  0.000000  -47.85750463189262  18.614691041714856  38.74928845754393  66.2308312171831  -13.371316853030672  17.01596925680395  59.17418851530339  42.06911154101163  -65.64393462958546  18.49943034142383  120.000000
10.4559  0.000000  0.000000  0.000000  -46.14721228982899  16.43964768107341  33.39366064020891  66.43287089490003  -13.540034870371318  16.729270431128995  55.64026292227249  39.8140300261338  -58.997492609553  18.507815811412488  120.000000
10.51335  0.000000  0.000000  0.000000  -44.63555040381653  14.008343588471014  28.121827222474035  66.42657705311876  -13.649761044719902  16.558436508535355  50.84392583483076  37.570498034466304  -50.93823231024297  18.644321933754835  120.000000
10.5708  0.000000  0.000000  0.000000  -43.30885547634758  11.429581665040299  23.119609747996556  66.19330626111838  -13.736587985716925  16.446141691969764  44.78685295208642  35.56421434574691  -41.598356936032594  18.99173567736716  120.000000
10.62825  0.000000  0.000000  0.000000  -42.14884522933273  8.79775763305756  18.550881237448593  65.7358993168177  -13.848083254307614  16.31854914112831  37.650579556619334  34.011932150232276  -31.300049237828087  19.578043752483055  120.000000
10.6857  0.000000  0.000000  0.000000  -41.13182817927805  6.204036975572929  14.547806875787158  65.06576571883791  -14.037151403088414  16.085872719786863  29.802425872212364  33.054031467554836  -20.556228660718432  20.362308827876475  120.000000
10.74315  0.000000  0.000000  0.000000  -40.21967014913808  3.7410177858978786  11.213192845130855  64.18738967733833  -14.355149386879154  15.659115857784816  21.727853681634443  32.69964339744327  -9.987542602881897  21.249842146239168  120.000000
10.8006  0.000000  0.000000  0.000000  -39.35247177905428  1.5028172832902216  8.627578557033681  63.11642546046354  -14.832996610677029  14.971136307435222  13.908388297130744  32.82871860191132  -0.17950098942571735  22.12121501016689  120.000000
10.85805  0.000000  0.000000  0.000000  -38.45979075154177  -0.4374284170503956  6.84082482347473  61.902825178155936  -15.467264955987575  14.000730620548156  6.727790131538759  33.23489065302274  8.445651485430291  22.87345498756086  120.000000
